<?xml version="1.0" ?><svg id="Layer_1" style="enable-background:new 0 0 62 62;" version="1.1" viewBox="0 0 62 62" xml:space="preserve" xmlns="http://www.w3.org/2000/svg" xmlns:xlink="http://www.w3.org/1999/xlink"><style type="text/css">
	.st0{fill:#5FD2FF;}
	.st1{fill:#FFFFFF;}
	.st2{fill:#0082ED;}
	.st3{fill:#2BA8FC;}
	.st4{fill:#CECECE;}
	.st5{fill:#F92B75;}
	.st6{fill:#3BB0FF;}
	.st7{fill:#CE004F;}
	.st8{fill:none;stroke:#ED0C68;stroke-width:5;stroke-linecap:round;stroke-linejoin:round;stroke-miterlimit:10;}
	.st9{fill:#ED0C68;}
	.st10{fill:#78DED4;}
	.st11{fill:#1E5363;}
	.st12{fill:#54C8E8;}
	.st13{fill:#F4F4F4;}
	.st14{fill:#0C82EB;}
	.st15{fill:#00B2E3;}
	.st16{fill:#68A2B9;}
	.st17{fill:#A2C5D3;}
	.st18{fill:#76777A;}
	.st19{fill:#A7A8A9;}
	.st20{fill:#D6D6D6;}
	.st21{fill:none;stroke:#F92B75;stroke-width:5;stroke-linecap:round;stroke-linejoin:round;stroke-miterlimit:10;}
	.st22{fill:#FD4A5C;}
	.st23{fill:#FF8E9F;}
	.st24{fill:none;stroke:#F458A3;stroke-width:5;stroke-linecap:round;stroke-linejoin:round;stroke-miterlimit:10;}
	.st25{fill:#FFB259;}
	.st26{fill:#F32735;}
	.st27{fill:#FF9E18;}
	.st28{fill:#FFC27A;}
	.st29{fill:#FFC56D;}
	.st30{fill:none;stroke:#FD4A5C;stroke-width:5;stroke-linecap:round;stroke-linejoin:round;stroke-miterlimit:10;}
	.st31{fill:#0069A7;}
	.st32{fill:#D8D8D8;}
	.st33{fill:#8CB7C9;}
	.st34{fill:#65BAAF;}
	.st35{fill:#00AF9A;}
	.st36{fill:#00C4B3;}
	.st37{fill:#19D3C5;}
	.st38{fill:none;stroke:#54C8E8;stroke-width:5;stroke-linecap:round;stroke-linejoin:round;stroke-miterlimit:10;}
	.st39{fill:#8331A7;}
	.st40{fill:#009383;}
	.st41{fill:#98989A;}
	.st42{fill:#636569;}
	.st43{fill:#898A8D;}
	.st44{fill:#FFB548;}
	.st45{fill:none;stroke:#FFB548;stroke-width:5;stroke-linecap:round;stroke-linejoin:round;stroke-miterlimit:10;}
	.st46{fill:#ED40A9;}
	.st47{fill:#CB007B;}
	.st48{fill:#E50695;}
	.st49{fill:#D7282F;}
	.st50{fill:#E5E5E5;}
	.st51{fill:#FFA4B4;}
	.st52{fill:#F6A7D7;}
	.st53{fill:#F478C4;}
	.st54{fill:#E0C7E6;}
	.st55{fill:#B980D0;}
	.st56{fill:#D9B7E2;}
	.st57{fill:#BADF93;}
	.st58{fill:#4C9C2E;}
	.st59{fill:#3DAE2B;}
	.st60{fill:#AADA91;}
	.st61{fill:#6ABF4B;}
	.st62{fill:#EFB8A9;}
	.st63{fill:#FECB8B;}
	.st64{fill:#BDE8EF;}
	.st65{fill:#CCA1DD;}
	.st66{fill:#B2B2B2;}
	.st67{fill:none;stroke:#FF8300;stroke-width:5;stroke-linecap:round;stroke-linejoin:round;stroke-miterlimit:10;}
	.st68{fill:none;stroke:#FF9E18;stroke-width:5;stroke-linecap:round;stroke-linejoin:round;stroke-miterlimit:10;}
	.st69{fill:#96DAEA;}
	.st70{fill:#FF8300;}
	.st71{fill:none;stroke:#6ABF4B;stroke-width:5;stroke-linecap:round;stroke-linejoin:round;stroke-miterlimit:10;}
	.st72{fill:none;}
	.st73{fill:#444444;}
	.st74{fill:#FDCF85;}
</style><g><rect class="st13" height="37.12" width="10.01" x="7.44" y="22.38"/><path class="st14" d="M17.45,62H7.44c-1.38,0-2.5-1.12-2.5-2.5V22.38c0-1.38,1.12-2.5,2.5-2.5h10.01c1.38,0,2.5,1.12,2.5,2.5V59.5   C19.95,60.88,18.83,62,17.45,62z M9.94,57h5.01V24.88H9.94V57z"/><path class="st13" d="M42.3,22.38L42.3,22.38c-2.84,0-5.37,1.33-7,3.4v-3.4H25.28V59.5h10.01V39.23c0-2.86,2.32-5.19,5.19-5.19h0   c2.86,0,5.19,2.32,5.19,5.19V59.5h10.01V35.76C55.68,28.37,49.69,22.38,42.3,22.38z"/><path class="st14" d="M55.68,62H45.66c-1.38,0-2.5-1.12-2.5-2.5V39.23c0-1.48-1.2-2.69-2.69-2.69s-2.69,1.21-2.69,2.69V59.5   c0,1.38-1.12,2.5-2.5,2.5H25.28c-1.38,0-2.5-1.12-2.5-2.5V22.38c0-1.38,1.12-2.5,2.5-2.5h10.01c0.87,0,1.63,0.44,2.08,1.11   c1.51-0.72,3.19-1.11,4.92-1.11c8.76,0,15.88,7.12,15.88,15.88V59.5C58.18,60.88,57.06,62,55.68,62z M48.16,57h5.02V35.76   c0-6-4.88-10.88-10.88-10.88c-1.97,0-3.81,0.89-5.04,2.45c-0.66,0.83-1.78,1.16-2.78,0.81c-1.01-0.35-1.68-1.3-1.68-2.36v-0.9   h-5.01V57h5.01V39.23c0-4.24,3.45-7.69,7.69-7.69c4.24,0,7.69,3.45,7.69,7.69V57z"/><path class="st15" d="M25.28,62c-1.38,0-2.5-1.12-2.5-2.5V22.38c0-1.38,1.12-2.5,2.5-2.5h10.01c1.38,0,2.5,1.12,2.5,2.5v3.4   c0,1.38-1.12,2.5-2.5,2.5s-2.5-1.12-2.5-2.5v-0.9h-5.01V59.5C27.78,60.88,26.66,62,25.28,62z"/><circle class="st13" cx="12.39" cy="8.56" r="6.06"/><path class="st14" d="M12.39,17.13c-4.72,0-8.56-3.84-8.56-8.56S7.66,0,12.39,0s8.56,3.84,8.56,8.56S17.11,17.13,12.39,17.13z    M12.39,5c-1.97,0-3.56,1.6-3.56,3.56s1.6,3.56,3.56,3.56s3.56-1.6,3.56-3.56S14.35,5,12.39,5z"/><path class="st15" d="M12.39,17.13c-4.72,0-8.56-3.84-8.56-8.56S7.66,0,12.39,0c1.38,0,2.5,1.12,2.5,2.5S13.77,5,12.39,5   c-1.97,0-3.56,1.6-3.56,3.56s1.6,3.56,3.56,3.56c1.38,0,2.5,1.12,2.5,2.5S13.77,17.13,12.39,17.13z"/></g></svg>